<svg width="12" height="8" viewBox="0 0 12 8" fill="none" xmlns="http://www.w3.org/2000/svg">
<path d="M11.5481 3.59169C11.5494 3.41765 11.4562 3.25006 11.289 3.12579C11.1219 3.00152 10.8945 2.93075 10.6568 2.92905L3.56061 2.87827L5.9264 1.1714C6.08556 1.04814 6.1729 0.884216 6.17002 0.714178C6.16714 0.544139 6.07427 0.381259 5.91097 0.25985C5.74767 0.138442 5.52669 0.0679855 5.29459 0.0633247C5.06249 0.0586644 4.83739 0.120164 4.66671 0.234865L0.763751 3.05076C0.595082 3.1726 0.499643 3.33872 0.498398 3.51262C0.497154 3.68652 0.590206 3.85399 0.757114 3.97823L4.61938 6.84969C4.70094 6.91476 4.79949 6.96718 4.90914 7.00383C5.01879 7.04048 5.1373 7.06062 5.25759 7.06303C5.37788 7.06545 5.4975 7.0501 5.6093 7.01789C5.7211 6.98568 5.8228 6.93728 5.90833 6.87558C5.99386 6.81387 6.06146 6.74012 6.10711 6.65873C6.15276 6.57734 6.17551 6.48998 6.17402 6.40185C6.17253 6.31372 6.14682 6.22664 6.09842 6.14579C6.05003 6.06494 5.97994 5.99199 5.89234 5.93128L3.55122 4.19073L10.6474 4.24151C11.142 4.24505 11.5455 3.95393 11.5481 3.59169Z" fill="#FFC213"/>
</svg>
