<svg width="27" height="27" viewBox="0 0 27 27" fill="none" xmlns="http://www.w3.org/2000/svg">
<path d="M26.3456 16.693L26.3728 16.7731L26.4025 16.9022L26.4154 17.0314V25.4479C26.4153 25.6824 26.3301 25.9089 26.1758 26.0854C26.0214 26.2619 25.8082 26.3764 25.5758 26.4076L25.4466 26.4167H1.55209C1.31799 26.4167 1.09182 26.3319 0.91539 26.178C0.73896 26.0241 0.62422 25.8116 0.59239 25.5797L0.58334 25.4479V17.0521L0.58593 16.9849L0.59884 16.8738C0.61377 16.8064 0.63407 16.7404 0.65955 16.6762L4.22455 8.9017C4.29179 8.7547 4.39474 8.6269 4.52401 8.5299C4.65328 8.4329 4.80477 8.3697 4.96468 8.3462L5.10418 8.3372L8.385 8.3359L7.36459 10.1055L7.27805 10.2734H5.72418L3.06076 16.0833H23.9238L21.3056 10.4697L22.419 8.5361C22.5059 8.6016 22.58 8.6808 22.6411 8.7738L22.7096 8.8965L26.3456 16.693ZM15.2631 0.655659L15.382 0.713789L22.0831 4.59266C22.5068 4.83808 22.6747 5.35604 22.4952 5.79779L22.4371 5.91662L18.8113 12.2083H20.2813C20.5285 12.2058 20.7673 12.2979 20.9488 12.4657C21.1303 12.6335 21.2408 12.8644 21.2576 13.111C21.2744 13.3577 21.1964 13.6014 21.0393 13.7924C20.8823 13.9833 20.6583 14.107 20.413 14.1381L20.2813 14.1471L17.6953 14.1458V14.1497H12.4266L12.4228 14.1458H6.71876C6.47485 14.1435 6.24077 14.0493 6.06329 13.882C5.88581 13.7147 5.77798 13.4866 5.76134 13.2432C5.74471 12.9998 5.82049 12.7592 5.97355 12.5692C6.1266 12.3793 6.34568 12.2541 6.58701 12.2187L6.71876 12.2096L9.0735 12.2083L8.8384 12.0727C8.6359 11.9553 8.4827 11.7686 8.4072 11.5471C8.3317 11.3256 8.339 11.0842 8.4276 10.8676L8.4845 10.7487L14.0606 1.06641C14.306 0.641449 14.8227 0.472249 15.2631 0.653079M15.2502 2.87475L10.6441 10.8779L12.9407 12.2083H16.5793L20.28 5.78487L15.2502 2.87475Z" fill="white"/>
</svg>
