<svg width="32" height="32" viewBox="0 0 32 32" fill="none" xmlns="http://www.w3.org/2000/svg">
<path d="M13.3333 4.024C13.202 4.024 13.072 3.99813 12.9507 3.94788C12.8293 3.89762 12.7191 3.82396 12.6262 3.73111C12.5334 3.63825 12.4597 3.52801 12.4095 3.40668C12.3592 3.28536 12.3333 3.15532 12.3333 3.024C12.3333 2.89268 12.3592 2.76264 12.4095 2.64131C12.4597 2.51999 12.5334 2.40975 12.6262 2.31689C12.7191 2.22403 12.8293 2.15037 12.9507 2.10012C13.072 2.04986 13.202 2.024 13.3333 2.024H18.048C18.3132 2.024 18.5676 2.12936 18.7551 2.31689C18.9426 2.50443 19.048 2.75878 19.048 3.024C19.048 3.28921 18.9426 3.54357 18.7551 3.73111C18.5676 3.91864 18.3132 4.024 18.048 4.024H13.3333ZM8.70667 4.62667C8.89394 4.81417 8.99912 5.06833 8.99912 5.33333C8.99912 5.59833 8.89394 5.8525 8.70667 6.04L5.37333 9.37333C5.18377 9.54997 4.93304 9.64614 4.67397 9.64156C4.4149 9.63699 4.16772 9.53204 3.98451 9.34883C3.80129 9.16561 3.69634 8.91843 3.69177 8.65936C3.6872 8.40029 3.78336 8.14956 3.96 7.96L7.29333 4.62667C7.48083 4.4394 7.735 4.33421 8 4.33421C8.265 4.33421 8.51917 4.4394 8.70667 4.62667ZM16 7.66667C14.0881 7.66667 12.2192 8.2336 10.6295 9.29579C9.03981 10.358 7.80081 11.8677 7.06917 13.6341C6.33752 15.4004 6.14609 17.3441 6.51908 19.2192C6.89207 21.0944 7.81273 22.8168 9.16464 24.1687C10.5165 25.5206 12.239 26.4413 14.1141 26.8143C15.9893 27.1872 17.9329 26.9958 19.6993 26.2642C21.4656 25.5325 22.9754 24.2935 24.0375 22.7038C25.0997 21.1142 25.6667 19.2452 25.6667 17.3333C25.6667 17.0681 25.772 16.8138 25.9596 16.6262C26.1471 16.4387 26.4015 16.3333 26.6667 16.3333C26.9319 16.3333 27.1862 16.4387 27.3738 16.6262C27.5613 16.8138 27.6667 17.0681 27.6667 17.3333C27.6667 19.6408 26.9824 21.8964 25.7005 23.815C24.4185 25.7336 22.5964 27.2289 20.4646 28.1119C18.3328 28.9949 15.9871 29.226 13.7239 28.7758C11.4608 28.3257 9.38203 27.2145 7.75042 25.5829C6.11881 23.9513 5.00767 21.8725 4.55751 19.6094C4.10735 17.3463 4.33838 15.0005 5.22141 12.8687C6.10443 10.7369 7.59978 8.9148 9.51835 7.63285C11.4369 6.3509 13.6926 5.66666 16 5.66666C16.2652 5.66666 16.5196 5.77202 16.7071 5.95956C16.8946 6.14709 17 6.40145 17 6.66667C17 6.93188 16.8946 7.18624 16.7071 7.37377C16.5196 7.56131 16.2652 7.66667 16 7.66667Z" fill="#A6BCCC"/>
<path d="M22.9173 11.152C23.0659 10.9596 23.1393 10.7196 23.1238 10.4769C23.1082 10.2343 23.0048 10.0057 22.8329 9.83373C22.661 9.66182 22.4323 9.55842 22.1897 9.54288C21.9471 9.52735 21.7071 9.60074 21.5147 9.74933L17.288 13.036L14.5253 15.0093C14.2603 15.1991 14.0398 15.4442 13.8791 15.7278C13.7184 16.0113 13.6214 16.3264 13.5947 16.6513C13.568 16.9761 13.6124 17.3028 13.7247 17.6088C13.8371 17.9147 14.0147 18.1925 14.2452 18.423C14.4757 18.6534 14.7536 18.8308 15.0596 18.943C15.3656 19.0552 15.6923 19.0995 16.0171 19.0727C16.3419 19.0459 16.657 18.9487 16.9405 18.7878C17.224 18.627 17.469 18.4064 17.6587 18.1413L19.6307 15.3787L22.9173 11.152Z" fill="#A6BCCC"/>
</svg>
