<svg width="30" height="30" viewBox="0 0 30 30" fill="none" xmlns="http://www.w3.org/2000/svg">
<path d="M0 30V26.6779C0 26.6779 7.5 23.3558 15 23.3558C22.5 23.3558 30 26.6779 30 26.6779V30H0ZM13.95 8.57258C12.15 2.09452 3 3.58945 3 3.58945C3 3.58945 3.3 16.5456 11.85 14.5523C11.25 9.7353 9 8.40647 9 8.40647C13.2 8.40647 13.5 14.054 13.5 14.054V21.6948H16.5V14.7184C16.5 14.7184 16.5 8.24037 21 6.57933C21 6.57933 18 11.5624 18 14.8845C28.5 16.0473 28.5 0.101267 28.5 0.101267C28.5 0.101267 15.15 -1.55977 13.95 8.57258Z" fill="#259D29"/>
</svg>
