<svg width="37" height="37" viewBox="0 0 37 37" fill="none" xmlns="http://www.w3.org/2000/svg">
<path d="M18.5 31.08C11.544 31.08 5.92 25.456 5.92 18.5C5.92 11.544 11.544 5.92 18.5 5.92C25.456 5.92 31.08 11.544 31.08 18.5C31.08 25.456 25.456 31.08 18.5 31.08ZM18.5 7.4C12.358 7.4 7.4 12.358 7.4 18.5C7.4 24.642 12.358 29.6 18.5 29.6C24.642 29.6 29.6 24.642 29.6 18.5C29.6 12.358 24.642 7.4 18.5 7.4Z" fill="#A6BCCC"/>
<path d="M17.02 23.976L10.582 17.538L11.618 16.502L17.02 21.904L25.382 13.542L26.418 14.578L17.02 23.976Z" fill="#A6BCCC"/>
</svg>
