<svg width="33" height="25" viewBox="0 0 33 25" fill="red" xmlns="http://www.w3.org/2000/svg">
<path d="M9.9 12.5C13.0917 12.5 15.675 10.0537 15.675 7.03125C15.675 4.00879 13.0917 1.5625 9.9 1.5625C6.70828 1.5625 4.125 4.00879 4.125 7.03125C4.125 10.0537 6.70828 12.5 9.9 12.5ZM13.86 14.0625H13.432C12.3595 14.5508 11.1684 14.8438 9.9 14.8438C8.63156 14.8438 7.44562 14.5508 6.36797 14.0625H5.94C2.66062 14.0625 0 16.582 0 19.6875V21.0938C0 22.3877 1.10859 23.4375 2.475 23.4375H17.325C18.6914 23.4375 19.8 22.3877 19.8 21.0938V19.6875C19.8 16.582 17.1394 14.0625 13.86 14.0625ZM24.75 12.5C27.4828 12.5 29.7 10.4004 29.7 7.8125C29.7 5.22461 27.4828 3.125 24.75 3.125C22.0172 3.125 19.8 5.22461 19.8 7.8125C19.8 10.4004 22.0172 12.5 24.75 12.5ZM27.225 14.0625H27.0291C26.3123 14.2969 25.5544 14.4531 24.75 14.4531C23.9456 14.4531 23.1877 14.2969 22.4709 14.0625H22.275C21.2231 14.0625 20.2537 14.3506 19.403 14.8145C20.6611 16.0986 21.45 17.8027 21.45 19.6875V21.5625C21.45 21.6699 21.4242 21.7725 21.4191 21.875H30.525C31.8914 21.875 33 20.8252 33 19.5312C33 16.5088 30.4167 14.0625 27.225 14.0625Z" fill="white"/>
</svg>
