<svg width="22" height="25" viewBox="0 0 22 25" fill="none" xmlns="http://www.w3.org/2000/svg">
<path d="M14.79 0H10.0847C7.95325 0 6.264 0 4.94329 0.178833C3.58271 0.3625 2.48192 0.749167 1.61433 1.62038C0.745542 2.49158 0.360083 3.59721 0.177625 4.96263C9.00279e-08 6.28938 0 7.98467 0 10.1246V17.1789C0 19.001 1.11167 20.5622 2.69096 21.2171C2.61 20.1175 2.61 18.5769 2.61 17.2937V11.2399C2.61 9.69204 2.61 8.35683 2.75258 7.28867C2.90604 6.14317 3.25163 5.046 4.13854 4.15546C5.02546 3.26492 6.119 2.91813 7.25967 2.76346C8.323 2.62088 9.65217 2.62088 11.1952 2.62088H14.9048C16.4466 2.62088 17.7734 2.62088 18.8379 2.76346C18.519 1.9494 17.9623 1.25031 17.2402 0.757363C16.5181 0.264417 15.6643 0.000490369 14.79 0Z" fill="#184260"/>
<path d="M4.34998 11.3547C4.34998 8.06079 4.34998 6.41383 5.36981 5.39037C6.38843 4.36691 8.02814 4.36691 11.31 4.36691H14.79C18.0706 4.36691 19.7115 4.36691 20.7314 5.39037C21.7512 6.41383 21.75 8.06079 21.75 11.3547V17.1789C21.75 20.4728 21.75 22.1197 20.7314 23.1432C19.7115 24.1667 18.0706 24.1667 14.79 24.1667H11.31C8.02935 24.1667 6.38843 24.1667 5.36981 23.1432C4.34998 22.1197 4.34998 20.4728 4.34998 17.1789V11.3547Z" fill="#184260"/>
</svg>
