<svg width="26" height="27" viewBox="0 0 26 27" fill="none" xmlns="http://www.w3.org/2000/svg">
<path fill-rule="evenodd" clip-rule="evenodd" d="M12.6875 3.625C10.6452 3.62405 8.66248 4.31295 7.06077 5.58001C5.45906 6.84708 4.33229 8.61801 3.86314 10.6057C3.39399 12.5933 3.60997 14.6812 4.47606 16.5307C5.34216 18.3803 6.80759 19.8831 8.63475 20.7954C8.84762 20.902 9.0374 21.0496 9.19326 21.2295C9.34912 21.4095 9.46801 21.6184 9.54313 21.8444C9.61825 22.0703 9.64813 22.3088 9.63108 22.5463C9.61402 22.7837 9.55036 23.0155 9.44373 23.2284C9.3371 23.4413 9.18958 23.631 9.0096 23.7869C8.82962 23.9428 8.62071 24.0616 8.39479 24.1368C8.16886 24.2119 7.93036 24.2418 7.69288 24.2247C7.45541 24.2077 7.22362 24.144 7.01075 24.0374C4.90351 22.9831 3.13149 21.3629 1.89323 19.3583C0.654969 17.3536 -0.000592764 15.0437 4.02174e-07 12.6875C4.02174e-07 5.68037 5.68038 0 12.6875 0C19.6946 0 25.375 5.68037 25.375 12.6875C25.3756 15.0437 24.72 17.3536 23.4818 19.3583C22.2435 21.3629 20.4715 22.9831 18.3643 24.0374C17.9343 24.2527 17.4365 24.2885 16.9802 24.1368C16.5239 23.9851 16.1466 23.6583 15.9313 23.2284C15.7159 22.7985 15.6802 22.3006 15.8319 21.8444C15.9836 21.3881 16.3103 21.0108 16.7403 20.7954C18.5674 19.8831 20.0328 18.3803 20.8989 16.5307C21.765 14.6812 21.981 12.5933 21.5119 10.6057C21.0427 8.61801 19.9159 6.84708 18.3142 5.58001C16.7125 4.31295 14.7298 3.62405 12.6875 3.625ZM12.6875 8.45833C11.7342 8.45758 10.8085 8.77895 10.0608 9.37031C9.31301 9.96167 8.78699 10.7883 8.56804 11.7162C8.34909 12.644 8.45005 13.6187 8.85455 14.4819C9.25905 15.3452 9.94336 16.0465 10.7965 16.472C11.2169 16.6926 11.534 17.0693 11.6795 17.5212C11.8251 17.9731 11.7876 18.464 11.575 18.8885C11.3625 19.3131 10.9918 19.6372 10.5428 19.7913C10.0937 19.9455 9.60213 19.9172 9.17367 19.7127C7.59154 18.9211 6.323 17.6186 5.57354 16.016C4.82408 14.4135 4.6376 12.6049 5.0443 10.8832C5.45099 9.16143 6.42705 7.62742 7.81437 6.52963C9.20168 5.43185 10.919 4.83458 12.6881 4.83458C14.4572 4.83458 16.1745 5.43185 17.5618 6.52963C18.9492 7.62742 19.9252 9.16143 20.3319 10.8832C20.7386 12.6049 20.5521 14.4135 19.8027 16.016C19.0532 17.6186 17.7847 18.9211 16.2025 19.7127C15.9895 19.8216 15.7571 19.8871 15.5186 19.9057C15.2801 19.9243 15.0403 19.8954 14.813 19.8209C14.5857 19.7463 14.3755 19.6275 14.1943 19.4713C14.0132 19.3151 13.8647 19.1245 13.7576 18.9107C13.6504 18.6968 13.5866 18.4639 13.5699 18.2253C13.5532 17.9866 13.5839 17.7471 13.6602 17.5204C13.7365 17.2937 13.857 17.0843 14.0146 16.9044C14.1722 16.7245 14.3639 16.5775 14.5785 16.472C15.4316 16.0465 16.116 15.3452 16.5205 14.4819C16.925 13.6187 17.0259 12.644 16.807 11.7162C16.588 10.7883 16.062 9.96167 15.3142 9.37031C14.5665 8.77895 13.6408 8.45758 12.6875 8.45833ZM9.66667 12.6875C9.66667 11.8863 9.98493 11.118 10.5514 10.5514C11.118 9.98493 11.8863 9.66667 12.6875 9.66667C13.4887 9.66667 14.257 9.98493 14.8236 10.5514C15.3901 11.118 15.7083 11.8863 15.7083 12.6875C15.7083 13.4887 15.3901 14.257 14.8236 14.8236C14.257 15.3901 13.4887 15.7083 12.6875 15.7083C11.8863 15.7083 11.118 15.3901 10.5514 14.8236C9.98493 14.257 9.66667 13.4887 9.66667 12.6875Z" fill="#DCAA19"/>
</svg>
