<svg width="31" height="31" viewBox="0 0 31 31" fill="none" xmlns="http://www.w3.org/2000/svg">
<path d="M21.8873 26.6949V19.8051M23.9023 19.8051V18.0833M23.9023 28.4167V26.6949M21.8873 23.25H25.9173M25.9173 23.25C26.5864 23.25 27.1276 23.8287 27.1276 24.5417V25.4032C27.1276 26.1162 26.5864 26.6949 25.9186 26.6949H20.677M25.9173 23.25C26.5851 23.25 27.1276 22.6713 27.1276 21.9583V21.0968C27.1276 20.3838 26.5864 19.8051 25.9186 19.8051H20.677M18.9823 5.40693C17.174 4.28059 12.5305 2.12093 8.34804 2.67247C10.8784 4.44205 12.2088 5.39272 15.7997 8.63997M23.9824 10.4871C24.4629 11.2827 25.2676 12.825 25.8295 14.4305M20.7997 13.7201C21.1123 14.0753 21.492 14.6113 21.7646 14.9265M13.3752 13.4566L4.41104 22.5628C3.68383 23.3017 3.69416 24.5094 4.43558 25.2624C4.60712 25.4408 4.81252 25.5831 5.03975 25.681C5.26698 25.779 5.51147 25.8306 5.7589 25.8329C6.00634 25.8352 6.25174 25.7881 6.48074 25.6943C6.70974 25.6006 6.91773 25.4621 7.09254 25.287L16.0567 16.1807M15.3011 10.6253L18.8454 14.2251C18.9378 14.3201 19.0482 14.3957 19.1702 14.4474C19.2921 14.4991 19.4232 14.5259 19.5557 14.5263C19.6881 14.5266 19.8193 14.5005 19.9416 14.4495C20.0638 14.3984 20.1747 14.3235 20.2675 14.229L24.6592 9.76759C24.8474 9.57421 24.9525 9.31488 24.952 9.04503C24.9516 8.77517 24.8455 8.51622 24.6566 8.32351L21.1123 4.72234C21.0198 4.62727 20.9093 4.55165 20.7871 4.49993C20.665 4.44822 20.5338 4.42145 20.4011 4.42121C20.2685 4.42097 20.1372 4.44726 20.0148 4.49853C19.8925 4.5498 19.7817 4.62502 19.6889 4.71976L15.2972 9.17989C15.1086 9.37333 15.0033 9.63294 15.0037 9.9031C15.0042 10.1733 15.1118 10.4325 15.3011 10.6253Z" stroke="white" stroke-width="1.5" stroke-linecap="round" stroke-linejoin="round"/>
</svg>
