<svg width="11" height="11" viewBox="0 0 11 11" fill="none" xmlns="http://www.w3.org/2000/svg">
<path d="M6.44417 4.13417L6.86583 4.55583L2.71333 8.70833H2.29167V8.28667L6.44417 4.13417ZM8.09417 1.375C7.97958 1.375 7.86042 1.42083 7.77333 1.50792L6.93458 2.34667L8.65333 4.06542L9.49208 3.22667C9.53457 3.18426 9.56828 3.1339 9.59128 3.07845C9.61428 3.02301 9.62612 2.96357 9.62612 2.90354C9.62612 2.84351 9.61428 2.78408 9.59128 2.72863C9.56828 2.67318 9.53457 2.62282 9.49208 2.58042L8.41958 1.50792C8.32792 1.41625 8.21333 1.375 8.09417 1.375ZM6.44417 2.83708L1.375 7.90625V9.625H3.09375L8.16292 4.55583L6.44417 2.83708Z" fill="white"/>
</svg>
