<svg width="31" height="21" viewBox="0 0 31 21" fill="none" xmlns="http://www.w3.org/2000/svg">
<path d="M9.04167 6.62499H10.3333C10.6759 6.62499 11.0044 6.76108 11.2467 7.00332C11.4889 7.24555 11.625 7.57409 11.625 7.91666C11.625 8.25923 11.4889 8.58777 11.2467 8.83001C11.0044 9.07224 10.6759 9.20833 10.3333 9.20833H9.04167V10.5C9.04167 10.8426 8.90558 11.1711 8.66335 11.4133C8.42111 11.6556 8.09257 11.7917 7.75 11.7917C7.40743 11.7917 7.07889 11.6556 6.83665 11.4133C6.59442 11.1711 6.45833 10.8426 6.45833 10.5V9.20833H5.16667C4.8241 9.20833 4.49555 9.07224 4.25332 8.83001C4.01109 8.58777 3.875 8.25923 3.875 7.91666C3.875 7.57409 4.01109 7.24555 4.25332 7.00332C4.49555 6.76108 4.8241 6.62499 5.16667 6.62499H6.45833V5.33333C6.45833 4.99076 6.59442 4.66222 6.83665 4.41998C7.07889 4.17775 7.40743 4.04166 7.75 4.04166C8.09257 4.04166 8.42111 4.17775 8.66335 4.41998C8.90558 4.66222 9.04167 4.99076 9.04167 5.33333V6.62499ZM12.0357 1.45833H18.9642C20.132 0.683297 21.488 0.239418 22.8879 0.173945C24.2879 0.108471 25.6794 0.423855 26.9144 1.08652C28.1493 1.74919 29.1815 2.73433 29.9009 3.93708C30.6204 5.13983 31.0002 6.51516 31 7.91666C31 12.1972 27.5306 20.8333 23.25 20.8333C20.6977 20.8333 18.4334 17.7617 17.0216 14.375H13.9784C12.5679 17.7617 10.3023 20.8333 7.75 20.8333C3.46942 20.8333 8.96612e-08 12.1972 8.96612e-08 7.91666C-0.000213063 6.51516 0.379624 5.13983 1.09908 3.93708C1.81853 2.73433 2.85066 1.74919 4.08561 1.08652C5.32055 0.423855 6.71208 0.108471 8.11205 0.173945C9.51203 0.239418 10.868 0.683297 12.0357 1.45833ZM19.7444 4.04166H11.2556L10.6046 3.60895C9.82599 3.09286 8.92205 2.7975 7.98894 2.7543C7.05582 2.7111 6.12846 2.92168 5.30551 3.36363C4.48257 3.80558 3.79483 4.46237 3.31548 5.26411C2.83614 6.06586 2.58311 6.98255 2.58333 7.91666C2.58333 11.9428 5.86675 18.25 7.75 18.25C8.68258 18.25 10.3385 16.3926 11.594 13.3804L12.2579 11.7917H18.7447L19.4073 13.3804C20.6615 16.3926 22.3174 18.25 23.25 18.25C25.1332 18.25 28.4167 11.9428 28.4167 7.91666C28.4169 6.98255 28.1639 6.06586 27.6845 5.26411C27.2052 4.46237 26.5174 3.80558 25.6945 3.36363C24.8715 2.92168 23.9442 2.7111 23.0111 2.7543C22.078 2.7975 21.174 3.09286 20.3954 3.60895L19.7444 4.04166ZM23.25 6.62499C22.9074 6.62499 22.5789 6.48891 22.3367 6.24667C22.0944 6.00444 21.9583 5.6759 21.9583 5.33333C21.9583 4.99076 22.0944 4.66222 22.3367 4.41998C22.5789 4.17775 22.9074 4.04166 23.25 4.04166C23.5926 4.04166 23.9211 4.17775 24.1633 4.41998C24.4056 4.66222 24.5417 4.99076 24.5417 5.33333C24.5417 5.6759 24.4056 6.00444 24.1633 6.24667C23.9211 6.48891 23.5926 6.62499 23.25 6.62499ZM20.6667 9.20833C20.3241 9.20833 19.9956 9.07224 19.7533 8.83001C19.5111 8.58777 19.375 8.25923 19.375 7.91666C19.375 7.57409 19.5111 7.24555 19.7533 7.00332C19.9956 6.76108 20.3241 6.62499 20.6667 6.62499C21.0092 6.62499 21.3378 6.76108 21.58 7.00332C21.8222 7.24555 21.9583 7.57409 21.9583 7.91666C21.9583 8.25923 21.8222 8.58777 21.58 8.83001C21.3378 9.07224 21.0092 9.20833 20.6667 9.20833ZM25.8333 9.20833C25.4908 9.20833 25.1622 9.07224 24.92 8.83001C24.6778 8.58777 24.5417 8.25923 24.5417 7.91666C24.5417 7.57409 24.6778 7.24555 24.92 7.00332C25.1622 6.76108 25.4908 6.62499 25.8333 6.62499C26.1759 6.62499 26.5044 6.76108 26.7467 7.00332C26.9889 7.24555 27.125 7.57409 27.125 7.91666C27.125 8.25923 26.9889 8.58777 26.7467 8.83001C26.5044 9.07224 26.1759 9.20833 25.8333 9.20833ZM23.25 11.7917C22.9074 11.7917 22.5789 11.6556 22.3367 11.4133C22.0944 11.1711 21.9583 10.8426 21.9583 10.5C21.9583 10.1574 22.0944 9.82888 22.3367 9.58665C22.5789 9.34441 22.9074 9.20833 23.25 9.20833C23.5926 9.20833 23.9211 9.34441 24.1633 9.58665C24.4056 9.82888 24.5417 10.1574 24.5417 10.5C24.5417 10.8426 24.4056 11.1711 24.1633 11.4133C23.9211 11.6556 23.5926 11.7917 23.25 11.7917Z" fill="white"/>
</svg>
