<svg width="33" height="33" viewBox="0 0 33 33" fill="none" xmlns="http://www.w3.org/2000/svg">
<g clip-path="url(#clip0_130_17)">
<path d="M16.5 0C12.1249 0 7.92516 1.73946 4.83398 4.8327C1.73965 7.92717 0.000885453 12.1238 0 16.5C0 20.8743 1.74023 25.0741 4.83398 28.1673C7.92516 31.2605 12.1249 33 16.5 33C20.8751 33 25.0748 31.2605 28.166 28.1673C31.2598 25.0741 33 20.8743 33 16.5C33 12.1257 31.2598 7.92593 28.166 4.8327C25.0748 1.73946 20.8751 0 16.5 0Z" fill="url(#paint0_linear_130_17)"/>
<path d="M7.46885 16.3257C12.2796 14.2302 15.4868 12.8487 17.0904 12.1811C21.6743 10.2751 22.6256 9.94408 23.247 9.93287C23.3836 9.93068 23.6878 9.96445 23.8863 10.1249C24.0513 10.2603 24.0978 10.4433 24.121 10.5719C24.1416 10.7002 24.1699 10.9929 24.1467 11.2213C23.8992 13.8303 22.8242 20.1617 22.2776 23.084C22.0481 24.3205 21.5918 24.735 21.151 24.7755C20.1919 24.8637 19.4649 24.1423 18.5367 23.5341C17.0853 22.582 16.2654 21.9896 14.8552 21.0607C13.2258 19.9872 14.2828 19.397 15.211 18.4328C15.4533 18.1804 19.6763 14.3403 19.7562 13.992C19.7665 13.9484 19.7768 13.786 19.6788 13.7004C19.5835 13.6146 19.4417 13.6439 19.3385 13.6672C19.1916 13.7002 16.8738 15.2336 12.3776 18.2673C11.7202 18.7195 11.1246 18.9399 10.5884 18.9283C10.0006 18.9157 8.86619 18.5952 8.02314 18.3214C6.99189 17.9855 6.16947 17.8079 6.24166 17.2373C6.27775 16.9403 6.68767 16.6364 7.46885 16.3257Z" fill="white"/>
</g>
<defs>
<linearGradient id="paint0_linear_130_17" x1="1650" y1="0" x2="1650" y2="3300" gradientUnits="userSpaceOnUse">
<stop stop-color="#2AABEE"/>
<stop offset="1" stop-color="#229ED9"/>
</linearGradient>
<clipPath id="clip0_130_17">
<rect width="33" height="33" fill="white"/>
</clipPath>
</defs>
</svg>
