<svg width="50" height="46" viewBox="0 0 50 46" fill="none" xmlns="http://www.w3.org/2000/svg">
<path d="M0.975551 22.6989C0.970925 26.5434 1.9827 30.3213 3.90888 33.6515L0.791443 45.0035L12.4403 41.9574C15.6623 43.7061 19.272 44.6227 22.9403 44.6235H22.95C35.0597 44.6235 44.9178 34.7957 44.9228 22.7163C44.9252 16.8627 42.6414 11.3589 38.4926 7.21775C34.3445 3.07698 28.8275 0.795532 22.9492 0.793213C10.8376 0.793213 0.98059 10.6198 0.975551 22.6989Z" fill="url(#paint0_linear_130_5)"/>
<path d="M0.191085 22.6919C0.186345 26.6742 1.23435 30.5873 3.22946 34.0369L0 45.7959L12.0663 42.6405C15.4037 44.4528 19.1433 45.4026 22.9434 45.4032H22.9531C35.4973 45.4032 45.7089 35.2217 45.7147 22.7101C45.7167 16.6462 43.3508 10.9445 39.0539 6.65492C34.7562 2.3661 29.0419 0.00231933 22.9531 0C10.4066 0 0.196124 10.1795 0.191085 22.6919ZM7.37713 33.4443L6.92636 32.7311C5.03167 29.7244 4.02894 26.2443 4.03411 22.6931C4.03798 12.2936 12.5248 3.83308 22.9605 3.83308C28.0136 3.83501 32.7628 5.79948 36.3353 9.36429C39.9074 12.9295 41.8729 17.6683 41.8713 22.7085C41.8667 33.1084 33.3802 41.5705 22.9527 41.5705H22.9457C19.5576 41.5707 16.2317 40.6626 13.3163 38.9411L12.6252 38.5322L5.46512 40.4046L7.37713 33.4443Z" fill="url(#paint1_linear_130_5)"/>
<path d="M17.264 13.2051C16.8376 12.2607 16.3895 12.2418 15.9845 12.2252C15.6527 12.2109 15.2733 12.212 14.8946 12.212C14.5147 12.212 13.8988 12.3543 13.3779 12.9218C12.8566 13.4892 11.3872 14.8611 11.3872 17.652C11.3872 20.4429 13.4252 23.1392 13.7093 23.518C13.9938 23.896 17.6438 29.8061 23.4244 32.0794C28.2291 33.9689 29.2066 33.5931 30.2492 33.4984C31.2919 33.4041 33.6143 32.1269 34.088 30.8022C34.562 29.4779 34.562 28.3426 34.4198 28.1056C34.2779 27.8694 33.8984 27.7272 33.3298 27.4438C32.7608 27.1601 29.9647 25.7878 29.4438 25.5984C28.9221 25.4094 28.543 25.3151 28.1636 25.8829C27.7845 26.45 26.6953 27.7272 26.3636 28.1056C26.0318 28.4841 25.6996 28.532 25.131 28.2486C24.562 27.9638 22.7302 27.3654 20.5574 25.4334C18.8667 23.9297 17.7252 22.0734 17.3934 21.5056C17.0616 20.9377 17.3581 20.6312 17.643 20.3482C17.8988 20.0943 18.212 19.6861 18.4965 19.3548C18.7802 19.0235 18.8752 18.7873 19.0647 18.4089C19.2546 18.0301 19.1593 17.6992 19.0174 17.4154C18.8752 17.1317 17.7698 14.3269 17.264 13.2051Z" fill="white"/>
<defs>
<linearGradient id="paint0_linear_130_5" x1="2207.36" y1="4421.82" x2="2207.36" y2="0.793213" gradientUnits="userSpaceOnUse">
<stop stop-color="#1FAF38"/>
<stop offset="1" stop-color="#60D669"/>
</linearGradient>
<linearGradient id="paint1_linear_130_5" x1="2285.74" y1="4579.59" x2="2285.74" y2="0" gradientUnits="userSpaceOnUse">
<stop stop-color="#F9F9F9"/>
<stop offset="1" stop-color="white"/>
</linearGradient>
</defs>
</svg>
