<svg width="33" height="33" viewBox="0 0 33 33" fill="none" xmlns="http://www.w3.org/2000/svg">
<path d="M29.8925 7.50338C29.9129 7.25171 29.9129 6.9988 29.8925 6.74713C29.7467 5.7144 29.2262 4.77138 28.43 4.09767C27.6338 3.42396 26.6176 3.06664 25.575 3.09375H7.45253C7.03086 3.10384 6.61561 3.1625 6.20678 3.26975C5.29146 3.52081 4.48701 4.07205 3.9225 4.83504C3.35798 5.59803 3.06614 6.52854 3.09378 7.47725V25.4554C3.08919 25.8248 3.1254 26.1901 3.2024 26.5513C3.41455 27.5279 3.96315 28.399 4.75233 29.0122C5.54151 29.6255 6.5211 29.9419 7.5199 29.9063H25.4788C26.013 29.9109 26.5441 29.8239 27.049 29.6491C27.8946 29.366 28.6271 28.819 29.1387 28.0886C29.6503 27.3582 29.914 26.483 29.8912 25.5915C29.9049 19.5168 29.8925 13.5108 29.8925 7.50338ZM25.3179 22.5101C24.8862 22.7576 24.5809 22.8401 24.112 23.0065C24.015 23.031 23.9251 23.0781 23.8498 23.1441C23.7745 23.2101 23.7159 23.293 23.6789 23.386C23.5783 23.6661 23.3951 23.909 23.1536 24.0828C22.912 24.2566 22.6234 24.3531 22.3259 24.3595L21.2025 24.4283C20.5887 24.5148 20.0042 24.7462 19.4975 25.1034C18.7586 25.591 17.9089 25.8849 17.0266 25.9582C16.1443 26.0315 15.2578 25.8817 14.4485 25.5228C14.1371 25.4013 13.8416 25.2425 13.5685 25.0498C12.8797 24.5922 12.0674 24.3562 11.2407 24.3733C10.9905 24.3775 10.7406 24.3545 10.4954 24.3045C10.2537 24.2658 10.0268 24.1626 9.8388 24.0058C9.65078 23.849 9.50852 23.6444 9.42703 23.4135C9.39441 23.3066 9.33282 23.2108 9.24908 23.1368C9.16535 23.0628 9.06274 23.0134 8.95265 22.9941C8.37079 22.863 7.83098 22.5884 7.3824 22.1953C7.21438 22.0667 7.08318 21.8961 7.00201 21.7008C6.92084 21.5054 6.89256 21.2921 6.92002 21.0823C6.94748 20.8725 7.02971 20.6737 7.15843 20.5058C7.28715 20.3379 7.45782 20.2069 7.65328 20.1259C8.1414 19.8413 8.62815 19.5704 9.08878 19.2459C9.65253 18.8375 10.1159 18.3054 10.4418 17.6908C10.6453 17.2851 10.6315 17.2439 10.2658 17.0005C9.87935 16.7535 9.50875 16.4825 9.15615 16.1893C8.9038 15.9815 8.72073 15.7018 8.63131 15.3873C8.5419 15.0729 8.55039 14.7387 8.65565 14.4293C8.77334 14.0185 9.04333 13.6682 9.41051 13.4497C9.77769 13.2312 10.2144 13.1611 10.6315 13.2536H10.8887C10.7692 12.3626 10.8641 11.4558 11.1654 10.6088C11.4667 9.76176 11.9658 8.99883 12.6212 8.38338C13.7024 7.47411 15.0795 6.99275 16.4918 7.03038C17.3076 7.00381 18.1197 7.15174 18.8738 7.46427C19.6278 7.7768 20.3064 8.24673 20.8643 8.84263C21.3844 9.45946 21.7727 10.1762 22.0054 10.9488C22.2381 11.7213 22.3102 12.5333 22.2173 13.3348C22.5244 13.3073 22.8314 13.3073 23.1385 13.3348C23.4592 13.3699 23.7611 13.5031 24.0033 13.7162C24.2454 13.9293 24.4159 14.2119 24.4915 14.5255C24.5807 14.8311 24.5797 15.1559 24.4884 15.4609C24.3972 15.7658 24.2197 16.0379 23.9773 16.2443C23.6063 16.5551 23.2174 16.8439 22.8127 17.1091C22.5019 17.3113 22.4882 17.3525 22.6504 17.6908C23.1503 18.6092 23.9078 19.3615 24.8298 19.855L25.4252 20.1795C25.639 20.2768 25.8208 20.4327 25.9498 20.6291C26.0787 20.8254 26.1494 21.0543 26.1537 21.2892C26.158 21.5241 26.0958 21.7554 25.9742 21.9563C25.8525 22.1573 25.6765 22.3198 25.4664 22.4249L25.3179 22.5101Z" fill="#FFFC00"/>
<path d="M24.519 21.0595C24.519 21.153 24.3843 21.2891 24.2756 21.329C23.8425 21.505 23.4094 21.681 22.9226 21.8171C22.749 21.8421 22.5898 21.9277 22.4733 22.0588C22.3567 22.19 22.2904 22.3581 22.286 22.5335C22.286 22.5891 22.2745 22.6441 22.2523 22.6951C22.2302 22.7461 22.1978 22.792 22.1572 22.83C22.1166 22.868 22.0687 22.8973 22.0164 22.9161C21.964 22.9349 21.9084 22.9427 21.8529 22.9391L20.4999 23.034C19.8083 23.1495 19.1524 23.4176 18.5776 23.8178C17.9089 24.2547 17.1243 24.4808 16.3255 24.4666C15.5268 24.4523 14.7507 24.1985 14.0979 23.738C13.2891 23.2243 12.3486 22.9563 11.3905 22.9666H11.3218C10.7951 22.9666 10.7278 22.8841 10.6466 22.3713C10.64 22.2683 10.603 22.1696 10.5404 22.0876C10.4777 22.0057 10.3922 21.9441 10.2946 21.9106C10.0636 21.8171 9.83402 21.7621 9.6044 21.6673C9.3734 21.5738 9.00902 21.4514 8.7244 21.3166C8.43977 21.1805 8.46727 21.153 8.46727 21.0458C8.46727 20.9385 8.60202 20.8423 8.71065 20.7886C9.61783 20.3614 10.425 19.7482 11.0798 18.9888C11.4923 18.4938 11.7948 17.9176 11.9735 17.2975C12.0305 17.1687 12.0384 17.0236 11.9959 16.8894C11.9533 16.7552 11.8632 16.6412 11.7425 16.5688C11.3768 16.324 10.9986 16.0806 10.6466 15.8235C10.4603 15.6927 10.2879 15.5429 10.1324 15.3766C10.0667 15.2837 10.0314 15.1728 10.0314 15.059C10.0314 14.9452 10.0667 14.8343 10.1324 14.7414C10.181 14.6445 10.2605 14.5665 10.3584 14.52C10.4563 14.4734 10.5669 14.4608 10.6728 14.4843C10.9524 14.5429 11.2274 14.6149 11.4978 14.7001L11.6765 14.7414L11.8594 14.8184C12.2389 14.9545 12.2306 14.7689 12.2169 14.3756C12.1566 13.4976 12.1566 12.6164 12.2169 11.7384C12.3096 11.0362 12.6028 10.3756 13.0612 9.8357C13.5197 9.2958 14.124 8.89946 14.8019 8.69413C15.9595 8.25889 17.2413 8.29294 18.3741 8.789C19.1106 9.06883 19.742 9.57054 20.1809 10.2248C20.6199 10.879 20.8447 11.6534 20.8244 12.441V14.6066C20.8244 14.9573 20.8931 14.9985 21.2039 14.8899L22.1238 14.5791C22.2401 14.5575 22.3594 14.5575 22.4758 14.5791C22.5785 14.5701 22.6816 14.5908 22.7728 14.6388C22.864 14.6869 22.9394 14.7602 22.99 14.85C23.0567 14.9373 23.0928 15.044 23.0928 15.1539C23.0928 15.2637 23.0567 15.3705 22.99 15.4578C22.8402 15.6288 22.6724 15.7833 22.4895 15.9184C22.1774 16.1343 21.8529 16.324 21.527 16.5413C21.2039 16.7571 21.0141 17.0143 21.1901 17.5423C21.5069 18.5144 22.1169 19.3646 22.9364 19.976C23.3695 20.3143 23.6321 20.4531 24.1216 20.7873C24.3293 20.9275 24.5328 20.9646 24.519 21.0595Z" fill="white"/>
</svg>
