<svg width="31" height="31" viewBox="0 0 31 31" fill="none" xmlns="http://www.w3.org/2000/svg">
<path d="M15.5 28.4167C22.6339 28.4167 28.4167 22.6339 28.4167 15.5C28.4167 8.36614 22.6339 2.58334 15.5 2.58334C8.36613 2.58334 2.58334 8.36614 2.58334 15.5C2.58334 22.6339 8.36613 28.4167 15.5 28.4167Z" stroke="white" stroke-width="2.58333" stroke-linecap="round" stroke-linejoin="round"/>
<path d="M10.3333 10.3333H16.7917M16.7917 10.3333H18.0833C18.9449 10.3333 20.6667 10.85 20.6667 12.9167C20.6667 14.9833 18.9449 15.5 18.0833 15.5M16.7917 10.3333V7.75M18.0833 15.5C18.9449 15.5 20.6667 16.0167 20.6667 18.0833C20.6667 20.15 18.9449 20.6667 18.0833 20.6667H16.7917M18.0833 15.5H12.9167M16.7917 20.6667H10.3333M16.7917 20.6667V23.25M12.9167 15.5V7.75M12.9167 15.5V23.25" stroke="white" stroke-width="2.58333" stroke-linecap="round" stroke-linejoin="round"/>
</svg>
