<svg width="26" height="26" viewBox="0 0 26 26" fill="none" xmlns="http://www.w3.org/2000/svg">
<path d="M15.2083 15.941V5.60768M15.2083 15.941L23.0901 20.4451C23.2079 20.5125 23.3413 20.5477 23.477 20.5474C23.6127 20.547 23.7459 20.5111 23.8634 20.4431C23.9808 20.3751 24.0783 20.2774 24.1462 20.1599C24.214 20.0424 24.2498 19.9091 24.25 19.7734V1.7753C24.2501 1.63949 24.2144 1.50605 24.1467 1.38834C24.0789 1.27064 23.9814 1.17281 23.8639 1.10465C23.7464 1.0365 23.6131 1.00041 23.4773 1C23.3415 0.999599 23.208 1.03489 23.0901 1.10235L15.2083 5.60768M15.2083 15.941H6.16667M15.2083 5.60768H6.16667C4.79638 5.60768 3.48222 6.15202 2.51328 7.12096C1.54434 8.0899 1 9.40406 1 10.7743C1 12.1446 1.54434 13.4588 2.51328 14.4277C3.48222 15.3967 4.79638 15.941 6.16667 15.941M6.16667 15.941L7.14446 22.7868C7.24648 23.4529 7.60724 24.0518 8.14832 24.4533C8.68941 24.8549 9.36711 25.0267 10.0342 24.9314C10.7012 24.8361 11.3037 24.4814 11.7107 23.9444C12.1177 23.4074 12.2963 22.7315 12.2078 22.0635L11.3333 15.941H6.16667Z" stroke="white" stroke-width="1.9375"/>
</svg>
