<svg width="29" height="29" viewBox="0 0 29 29" fill="none" xmlns="http://www.w3.org/2000/svg">
<path fill-rule="evenodd" clip-rule="evenodd" d="M14.5 5.4375C12.4577 5.43655 10.475 6.12545 8.87327 7.39251C7.27156 8.65957 6.14479 10.4305 5.67564 12.4182C5.20649 14.4058 5.42247 16.4937 6.28856 18.3432C7.15466 20.1928 8.62009 21.6956 10.4473 22.6079C10.6601 22.7145 10.8499 22.8621 11.0058 23.042C11.1616 23.222 11.2805 23.4309 11.3556 23.6569C11.4307 23.8828 11.4606 24.1213 11.4436 24.3588C11.4265 24.5962 11.3629 24.828 11.2562 25.0409C11.1496 25.2538 11.0021 25.4435 10.8221 25.5994C10.6421 25.7553 10.4332 25.8741 10.2073 25.9493C9.98136 26.0244 9.74286 26.0543 9.50538 26.0372C9.26791 26.0202 9.03612 25.9565 8.82325 25.8499C6.71601 24.7956 4.94399 23.1754 3.70573 21.1707C2.46747 19.1661 1.81191 16.8562 1.8125 14.5C1.8125 7.49288 7.49288 1.8125 14.5 1.8125C21.5071 1.8125 27.1875 7.49288 27.1875 14.5C27.1881 16.8562 26.5325 19.1661 25.2943 21.1707C24.056 23.1754 22.284 24.7956 20.1768 25.8499C19.7468 26.0652 19.249 26.101 18.7927 25.9493C18.3364 25.7976 17.9591 25.4708 17.7438 25.0409C17.5284 24.611 17.4927 24.1131 17.6444 23.6569C17.7961 23.2006 18.1228 22.8233 18.5528 22.6079C20.3799 21.6956 21.8453 20.1928 22.7114 18.3432C23.5775 16.4937 23.7935 14.4058 23.3244 12.4182C22.8552 10.4305 21.7284 8.65957 20.1267 7.39251C18.525 6.12545 16.5423 5.43655 14.5 5.4375ZM14.5 10.2708C13.5467 10.2701 12.621 10.5914 11.8733 11.1828C11.1255 11.7742 10.5995 12.6008 10.3805 13.5287C10.1616 14.4565 10.2626 15.4312 10.6671 16.2944C11.0716 17.1577 11.7559 17.859 12.609 18.2845C13.0294 18.5051 13.3465 18.8818 13.492 19.3337C13.6376 19.7856 13.6001 20.2765 13.3875 20.701C13.175 21.1256 12.8043 21.4497 12.3553 21.6038C11.9062 21.758 11.4146 21.7297 10.9862 21.5252C9.40404 20.7336 8.1355 19.4311 7.38604 17.8285C6.63658 16.226 6.4501 14.4174 6.8568 12.6957C7.26349 10.9739 8.23955 9.43992 9.62687 8.34213C11.0142 7.24435 12.7315 6.64708 14.5006 6.64708C16.2697 6.64708 17.987 7.24435 19.3743 8.34213C20.7617 9.43992 21.7377 10.9739 22.1444 12.6957C22.5511 14.4174 22.3646 16.226 21.6152 17.8285C20.8657 19.4311 19.5972 20.7336 18.015 21.5252C17.802 21.6341 17.5696 21.6996 17.3311 21.7182C17.0926 21.7368 16.8528 21.7079 16.6255 21.6334C16.3982 21.5588 16.188 21.44 16.0068 21.2838C15.8257 21.1276 15.6772 20.937 15.5701 20.7232C15.4629 20.5093 15.3991 20.2764 15.3824 20.0378C15.3657 19.7991 15.3964 19.5596 15.4727 19.3329C15.549 19.1062 15.6695 18.8968 15.8271 18.7169C15.9847 18.537 16.1764 18.39 16.391 18.2845C17.2441 17.859 17.9284 17.1577 18.333 16.2944C18.7374 15.4312 18.8384 14.4565 18.6195 13.5287C18.4005 12.6008 17.8745 11.7742 17.1267 11.1828C16.379 10.5914 15.4533 10.2701 14.5 10.2708ZM11.4792 14.5C11.4792 13.6988 11.7974 12.9305 12.3639 12.3639C12.9305 11.7974 13.6988 11.4792 14.5 11.4792C15.3012 11.4792 16.0695 11.7974 16.6361 12.3639C17.2026 12.9305 17.5208 13.6988 17.5208 14.5C17.5208 15.3012 17.2026 16.0695 16.6361 16.6361C16.0695 17.2026 15.3012 17.5208 14.5 17.5208C13.6988 17.5208 12.9305 17.2026 12.3639 16.6361C11.7974 16.0695 11.4792 15.3012 11.4792 14.5Z" fill="white"/>
</svg>
