<svg width="38" height="38" viewBox="0 0 38 38" fill="none" xmlns="http://www.w3.org/2000/svg">
<g clip-path="url(#clip0_130_10)">
<path d="M29.0938 38H8.90625C3.98746 38 0 34.0125 0 29.0938V8.90625C0 3.98746 3.98746 0 8.90625 0H29.0938C34.0125 0 38 3.98746 38 8.90625V29.0938C38 34.0125 34.0125 38 29.0938 38Z" fill="url(#paint0_radial_130_10)"/>
<path d="M29.0938 38H8.90625C3.98746 38 0 34.0125 0 29.0938V8.90625C0 3.98746 3.98746 0 8.90625 0H29.0938C34.0125 0 38 3.98746 38 8.90625V29.0938C38 34.0125 34.0125 38 29.0938 38Z" fill="url(#paint1_radial_130_10)"/>
<path d="M19.0013 33.8438C14.9701 33.8438 14.464 33.8261 12.8808 33.7541C11.3005 33.6817 10.2219 33.4315 9.27809 33.0645C8.30166 32.6853 7.47353 32.1781 6.64852 31.3528C5.82276 30.5277 5.31555 29.6995 4.93525 28.7235C4.56713 27.7795 4.31671 26.7003 4.24561 25.1208C4.1748 23.5374 4.15625 23.0313 4.15625 18.9999C4.15625 14.9684 4.17406 14.464 4.24591 12.8808C4.31864 11.3005 4.56876 10.2219 4.93555 9.27809C5.31495 8.30166 5.82216 7.47353 6.64748 6.64851C7.47234 5.82276 8.30048 5.31436 9.27616 4.93525C10.2207 4.56816 11.2995 4.31805 12.8795 4.24561C14.4629 4.17362 14.9684 4.15595 18.9996 4.15595C23.0313 4.15595 23.5357 4.17362 25.1189 4.24561C26.6992 4.31805 27.779 4.56816 28.7235 4.93525C29.6995 5.31436 30.5265 5.82276 31.3512 6.64851C32.1769 7.47353 32.684 8.30166 33.0645 9.27764C33.4293 10.2219 33.6799 11.3008 33.7541 12.8805C33.8252 14.4638 33.8438 14.9684 33.8438 18.9999C33.8438 23.0313 33.8252 23.5371 33.7541 25.1205C33.6799 26.7008 33.4293 27.7793 33.0645 28.7231C32.684 29.6995 32.1769 30.5277 31.3512 31.3528C30.5256 32.1784 29.6998 32.6856 28.7227 33.0643C27.7764 33.4315 26.6971 33.6818 25.1168 33.7541C23.5334 33.8261 23.0293 33.8438 18.9967 33.8438H19.0013ZM17.6697 31.1688C18.065 31.1694 18.506 31.1688 19.0013 31.1688C22.9648 31.1688 23.4344 31.1545 24.9995 31.0834C26.4468 31.0172 27.2323 30.7754 27.7556 30.5722C28.4483 30.3032 28.9422 29.9816 29.4614 29.4619C29.981 28.9423 30.3025 28.4476 30.5722 27.7548C30.7754 27.2323 31.0175 26.4468 31.0834 24.9995C31.1545 23.4347 31.1699 22.9648 31.1699 19.0033C31.1699 15.0418 31.1545 14.5717 31.0834 13.007C31.0172 11.5597 30.7754 10.7742 30.5722 10.2515C30.3032 9.55878 29.981 9.06552 29.4614 8.54629C28.9419 8.02676 28.4486 7.70524 27.7556 7.43612C27.2329 7.23202 26.4468 6.99081 24.9995 6.92461C23.4347 6.85351 22.9648 6.83807 19.0013 6.83807C15.0378 6.83807 14.568 6.85351 13.0033 6.92461C11.556 6.99141 10.7705 7.23321 10.2468 7.43642C9.55418 7.70554 9.05929 8.02705 8.53976 8.54659C8.02023 9.06612 7.69871 9.55967 7.429 10.2527C7.22579 10.7754 6.98369 11.5609 6.91778 13.0082C6.84668 14.573 6.83243 15.043 6.83243 19.007C6.83243 22.971 6.84668 23.4384 6.91778 25.0033C6.98398 26.4505 7.22579 27.2361 7.429 27.7593C7.69812 28.4521 8.02023 28.9468 8.53991 29.4663C9.05959 29.9859 9.55418 30.3075 10.2469 30.5771C10.7702 30.7812 11.556 31.0224 13.0033 31.0889C14.3726 31.1508 14.9033 31.1694 17.6697 31.1725V31.1688ZM26.9249 28.7041C25.9415 28.7041 25.1437 27.907 25.1437 26.9234C25.1437 25.94 25.9415 25.1422 26.9249 25.1422C27.9083 25.1422 28.7062 25.94 28.7062 26.9234C28.7062 27.9068 27.9083 28.7047 26.9249 28.7047V28.7041ZM19.0013 26.6229C14.7916 26.6229 11.3785 23.2097 11.3785 18.9999C11.3785 14.79 14.7916 11.3785 19.0013 11.3785C23.2112 11.3785 26.6232 14.79 26.6232 18.9999C26.6232 23.2095 23.2109 26.6229 19.001 26.6229H19.0013ZM19.0013 23.9479C21.7339 23.9479 23.9494 21.7327 23.9494 18.9999C23.9494 16.2673 21.7339 14.0518 19.0013 14.0518C16.2688 14.0518 14.0535 16.2673 14.0535 18.9999C14.0535 21.7327 16.2686 23.9479 19.0013 23.9479Z" fill="white"/>
</g>
<defs>
<radialGradient id="paint0_radial_130_10" cx="0" cy="0" r="1" gradientUnits="userSpaceOnUse" gradientTransform="translate(10.0937 -2.92674) rotate(90) scale(37.6608 35.0275)">
<stop stop-color="#FFDD55"/>
<stop offset="0.1" stop-color="#FFDD55"/>
<stop offset="0.5" stop-color="#FF543E"/>
<stop offset="1" stop-color="#C837AB"/>
</radialGradient>
<radialGradient id="paint1_radial_130_10" cx="0" cy="0" r="1" gradientUnits="userSpaceOnUse" gradientTransform="translate(-6.36515 35.2627) rotate(-78.681) scale(16.8346 69.3927)">
<stop stop-color="#3771C8"/>
<stop offset="0.128" stop-color="#3771C8"/>
<stop offset="1" stop-color="#6600FF" stop-opacity="0"/>
</radialGradient>
<clipPath id="clip0_130_10">
<rect width="38" height="38" fill="white" transform="matrix(1 0 0 -1 0 38)"/>
</clipPath>
</defs>
</svg>
