<svg width="334" height="195" viewBox="0 0 334 195" fill="none" xmlns="http://www.w3.org/2000/svg">
<g filter="url(#filter0_b_814_46)">
<path d="M0.5 10C0.5 4.7533 4.7533 0.50001 10 0.50001H215.872C225.269 0.50001 233.329 7.20105 235.044 16.4395L238.172 33.2809C238.28 33.8633 238.349 34.4555 238.419 35.0678L238.421 35.0806C238.49 35.6831 238.561 36.3053 238.676 36.9229C239.579 41.8036 243.857 45.5 249 45.5H314C324.769 45.5 333.5 54.2329 333.5 65.0026V65.2613V65.5197V65.7776V66.0352V66.2922V66.5489V66.8052V67.061V67.3164V67.5714V67.826V68.0802V68.334V68.5873V68.8403V69.0929V69.345V69.5968V69.8482V70.0992V70.3498V70.6V70.8498V71.0992V71.3483V71.5969V71.8452V72.0931V72.3407V72.5878V72.8346V73.081V73.3271V73.5727V73.8181V74.063V74.3076V74.5519V74.7957V75.0393V75.2825V75.5253V75.7678V76.0099V76.2517V76.4931V76.7342V76.975V77.2154V77.4555V77.6953V77.9347V78.1738V78.4126V78.6511V78.8892V79.127V79.3645V79.6017V79.8385V80.0751V80.3113V80.5472V80.7828V81.0182V81.2532V81.4879V81.7223V81.9564V82.1902V82.4237V82.657V82.8899V83.1226V83.3549V83.587V83.8188V84.0504V84.2816V84.5126V84.7433V84.9737V85.2038V85.4337V85.6634V85.8927V86.1218V86.3506V86.5792V86.8075V87.0356V87.2634V87.491V87.7183V87.9454V88.1722V88.3988V88.6251V88.8512V89.0771V89.3027V89.5281V89.7533V89.9782V90.203V90.4275V90.6517V90.8758V91.0996V91.3232V91.5466V91.7698V91.9927V92.2155V92.4381V92.6604V92.8826V93.1045V93.3262V93.5478V93.7691V93.9903V94.2113V94.432V94.6526V94.873V95.0933V95.3133V95.5331V95.7528V95.9723V96.1917V96.4108V96.6298V96.8486V97.0673V97.2858V97.5041V97.7223V97.9403V98.1581V98.3758V98.5934V98.8108V99.028V99.2451V99.4621V99.6789V99.8956V100.112V100.329V100.545V100.761V100.977V101.193V101.409V101.624V101.84V102.055V102.27V102.485V102.7V102.915V103.13V103.345V103.559V103.774V103.988V104.203V104.417V104.631V104.845V105.059V105.272V105.486V105.7V105.913V106.127V106.34V106.553V106.767V106.98V107.193V107.406V107.619V107.832V108.044V108.257V108.47V108.682V108.895V109.107V109.32V109.532V109.744V109.957V110.169V110.381V110.593V110.805V111.017V111.229V111.441V111.653V111.865V112.077V112.289V112.501V112.713V112.925V113.136V113.348V113.56V113.772V113.983V114.195V114.407V114.618V114.83V115.042V115.253V115.465V115.677V115.889V116.1V116.312V116.524V116.736V116.947V117.159V117.371V117.583V117.795V118.006V118.218V118.43V118.642V118.854V119.066V119.278V119.491V119.703V119.915V120.127V120.339V120.552V120.764V120.977V121.189V121.402V121.614V121.827V122.04V122.252V122.465V122.678V122.891V123.104V123.318V123.531V123.744V123.958V124.171V124.385V124.598V124.812V125.026V125.24V125.454V125.668V125.882V126.096V126.311V126.525V126.74V126.955V127.169V127.384V127.6V127.815V128.03V128.245V128.461V128.677V128.892V129.108V129.324V129.541V129.757V129.973V130.19V130.407V130.624V130.841V131.058V131.275V131.492V131.71V131.928V132.146V132.364V132.582V132.8V133.019V133.238V133.457V133.676V133.895V134.114V134.334V134.554V134.774V134.994V135.214V135.434V135.655V135.876V136.097V136.318V136.54V136.761V136.983V137.205V137.427V137.65V137.872V138.095V138.318V138.542V138.765V138.989V139.213V139.437V139.661V139.886V140.111V140.336V140.561V140.786V141.012V141.238V141.464V141.691V141.917V142.144V142.371V142.599V142.826V143.054V143.283V143.511V143.74V143.969V144.198V144.427V144.657V144.887V145.117V145.348V145.579V145.81V146.041V146.273V146.505V146.737V146.969V147.202V147.435V147.668V147.902V148.136V148.37V148.605V148.84V149.075V149.31V149.546V149.782V150.018V150.255V150.492V150.729V150.967V151.205V151.443V151.682V151.921V152.16V152.399V152.639V152.879V153.12V153.361V153.602V153.844V154.086V154.328V154.571V154.814V155.057V155.301V155.545V155.789V156.034V156.279V156.524V156.77V157.016V157.263V157.51V157.757V158.005V158.253V158.501V158.75V158.999V159.249V159.499V159.749V160V160.251V160.503V160.754V161.007V161.26V161.513V161.766V162.02V162.274V162.529V162.784V163.04V163.296V163.552V163.809V164.066V164.324V164.582V164.841V165.1V165.359V165.619V165.879V166.14V166.401V166.663V166.925V167.187V167.45V167.713V167.977V168.241V168.506V168.771V169.037V169.303V169.57V169.837V170.104V170.372V170.641V170.909V171.179V171.449V171.719V171.99V172.261V172.533V172.805V173.078V173.351V173.625V173.899V174.174V174.449V174.725V175.001V175.278V175.555V175.833V176.111V176.39V176.669V176.949V177.229V177.51V177.791V178.073V178.355V178.638V178.922V179.206V179.49V179.775V180.061V180.347V180.634V180.921V181.209V181.497V181.786V182.075V182.365V182.656V182.947V183.238V183.531V183.823V184.117V184.411V184.705V185C333.5 190.247 329.247 194.5 324 194.5H10C4.7533 194.5 0.5 190.247 0.5 185V10Z" stroke="url(#paint1_linear_814_46)"/>
</g>
<defs>
<filter id="filter0_b_814_46" x="-40" y="-40" width="414" height="275" filterUnits="userSpaceOnUse" color-interpolation-filters="sRGB">
<feFlood flood-opacity="0" result="BackgroundImageFix"/>
<feGaussianBlur in="BackgroundImageFix" stdDeviation="20"/>
<feComposite in2="SourceAlpha" operator="in" result="effect1_backgroundBlur_814_46"/>
<feBlend mode="normal" in="SourceGraphic" in2="effect1_backgroundBlur_814_46" result="shape"/>
</filter>
<linearGradient id="paint0_linear_814_46" x1="167" y1="0" x2="167" y2="195" gradientUnits="userSpaceOnUse">
<stop stop-color="#444F5E"/>
<stop offset="1" stop-color="#6E7681"/>
</linearGradient>
<linearGradient id="paint1_linear_814_46" x1="9.12568" y1="7.87268" x2="329.788" y2="79.8551" gradientUnits="userSpaceOnUse">
<stop stop-color="white"/>
<stop offset="0.325" stop-color="#B4CADA"/>
<stop offset="0.69" stop-color="#608FB0"/>
<stop offset="1" stop-color="#185C8D"/>
</linearGradient>
</defs>
</svg>
