<svg width="22" height="22" viewBox="0 0 22 22" fill="none" xmlns="http://www.w3.org/2000/svg">
<g clip-path="url(#clip0_242_69)">
<path d="M11.4767 0.176048C11.3438 0.0624334 11.1748 0 11 0C10.8252 0 10.6562 0.0624334 10.5233 0.176048L0 9.19605V19.8C0 20.3835 0.231785 20.9431 0.644365 21.3557C1.05695 21.7683 1.61652 22 2.2 22H8.06667C8.26116 22 8.44769 21.9228 8.58521 21.7853C8.72274 21.6477 8.8 21.4612 8.8 21.2667V16.8667C8.8 16.2832 9.03178 15.7237 9.44437 15.3111C9.85695 14.8985 10.4165 14.6667 11 14.6667C11.5835 14.6667 12.1431 14.8985 12.5556 15.3111C12.9682 15.7237 13.2 16.2832 13.2 16.8667V21.2667C13.2 21.4612 13.2773 21.6477 13.4148 21.7853C13.5523 21.9228 13.7388 22 13.9333 22H19.8C20.3835 22 20.9431 21.7683 21.3556 21.3557C21.7682 20.9431 22 20.3835 22 19.8V9.19605L11.4767 0.176048Z" fill="white"/>
</g>
<defs>
<clipPath id="clip0_242_69">
<rect width="22" height="22" fill="white"/>
</clipPath>
</defs>
</svg>
