<svg width="21" height="13" viewBox="0 0 21 13" fill="none" xmlns="http://www.w3.org/2000/svg">
<path d="M5.6 0C3.29 0 1.4 1.95 1.4 4.33333C1.4 5.76622 2.0839 7.04167 3.1283 7.83178C1.2824 8.77644 0 10.7351 0 13H1.4C1.4 10.5993 3.2732 8.66667 5.6 8.66667C7.9268 8.66667 9.8 10.5993 9.8 13H11.2C11.2 10.5993 13.0732 8.66667 15.4 8.66667C17.7268 8.66667 19.6 10.5993 19.6 13H21C21 10.7344 19.7176 8.77644 17.8717 7.83178C18.4064 7.43022 18.8416 6.90405 19.142 6.29612C19.4423 5.68819 19.5992 5.01568 19.6 4.33333C19.6 1.95 17.71 0 15.4 0C13.09 0 11.2 1.95 11.2 4.33333C11.2 5.76622 11.8839 7.04167 12.9283 7.83178C11.9055 8.35047 11.0589 9.1766 10.5 10.2014C9.94111 9.1766 9.09452 8.35047 8.0717 7.83178C8.6064 7.43022 9.04163 6.90405 9.34196 6.29612C9.64229 5.68819 9.79923 5.01568 9.8 4.33333C9.8 1.95 7.91 0 5.6 0ZM5.6 1.44444C7.1561 1.44444 8.4 2.72783 8.4 4.33333C8.4 5.93883 7.1561 7.22222 5.6 7.22222C4.0439 7.22222 2.8 5.93883 2.8 4.33333C2.8 2.72783 4.0439 1.44444 5.6 1.44444ZM15.4 1.44444C16.9561 1.44444 18.2 2.72783 18.2 4.33333C18.2 5.93883 16.9561 7.22222 15.4 7.22222C13.8439 7.22222 12.6 5.93883 12.6 4.33333C12.6 2.72783 13.8439 1.44444 15.4 1.44444Z" fill="#8BA0AF"/>
</svg>
