<svg width="13" height="13" viewBox="0 0 13 13" fill="none" xmlns="http://www.w3.org/2000/svg">
<circle cx="6.5" cy="6.5" r="6.5" fill="#F9E160"/>
<g filter="url(#filter0_i_40_208)">
<circle cx="6.49999" cy="6.5" r="5.39831" fill="#FE881C" fill-opacity="0.72"/>
</g>
<g filter="url(#filter1_d_40_208)">
<path d="M6.25067 10.1356V9.40451C5.46456 9.34494 4.84992 9.06334 4.40674 8.55971L4.92114 7.82863C5.28518 8.22937 5.72836 8.47035 6.25067 8.55158V6.98383C6.0027 6.91884 5.79694 6.85656 5.63339 6.79699C5.46984 6.73201 5.29837 6.64266 5.11899 6.52893C4.93961 6.40979 4.80243 6.25816 4.70747 6.07404C4.61778 5.8845 4.57293 5.66247 4.57293 5.40794C4.57293 4.99096 4.72593 4.63625 5.03193 4.34382C5.33794 4.05139 5.74418 3.88351 6.25067 3.84019V3.08474H6.88378V3.84831C7.52217 3.91871 8.0524 4.1624 8.47447 4.57939L7.94424 5.2861C7.65407 4.99367 7.30058 4.80413 6.88378 4.71748V6.11465C7.07899 6.16881 7.24518 6.22025 7.38236 6.26899C7.51953 6.31773 7.66989 6.38813 7.83345 6.48019C8.00228 6.56684 8.13681 6.66432 8.23706 6.77262C8.3373 6.87552 8.42171 7.0109 8.4903 7.17878C8.55889 7.34666 8.59318 7.5362 8.59318 7.7474C8.59318 8.19146 8.44809 8.56783 8.15792 8.87651C7.87302 9.17977 7.4483 9.35577 6.88378 9.40451V10.1356H6.25067ZM7.46149 8.29164C7.58812 8.15626 7.65143 8.00463 7.65143 7.83675C7.65143 7.66887 7.58548 7.53349 7.45358 7.4306C7.32168 7.32229 7.13175 7.23023 6.88378 7.15441V8.55971C7.1423 8.51638 7.33487 8.42703 7.46149 8.29164ZM5.5226 5.34296C5.5226 5.6029 5.76529 5.80327 6.25067 5.94407V4.67687C6.02381 4.69853 5.84443 4.77164 5.71253 4.89619C5.58591 5.01533 5.5226 5.16425 5.5226 5.34296Z" fill="#FFEA7C"/>
</g>
<defs>
<filter id="filter0_i_40_208" x="1.10168" y="1.10169" width="10.7966" height="11.0509" filterUnits="userSpaceOnUse" color-interpolation-filters="sRGB">
<feFlood flood-opacity="0" result="BackgroundImageFix"/>
<feBlend mode="normal" in="SourceGraphic" in2="BackgroundImageFix" result="shape"/>
<feColorMatrix in="SourceAlpha" type="matrix" values="0 0 0 0 0 0 0 0 0 0 0 0 0 0 0 0 0 0 127 0" result="hardAlpha"/>
<feMorphology radius="0.254237" operator="erode" in="SourceAlpha" result="effect1_innerShadow_40_208"/>
<feOffset dy="0.254237"/>
<feComposite in2="hardAlpha" operator="arithmetic" k2="-1" k3="1"/>
<feColorMatrix type="matrix" values="0 0 0 0 0 0 0 0 0 0 0 0 0 0 0 0 0 0 0.25 0"/>
<feBlend mode="normal" in2="shape" result="effect1_innerShadow_40_208"/>
</filter>
<filter id="filter1_d_40_208" x="4.40674" y="3.08474" width="4.1864" height="7.30509" filterUnits="userSpaceOnUse" color-interpolation-filters="sRGB">
<feFlood flood-opacity="0" result="BackgroundImageFix"/>
<feColorMatrix in="SourceAlpha" type="matrix" values="0 0 0 0 0 0 0 0 0 0 0 0 0 0 0 0 0 0 127 0" result="hardAlpha"/>
<feOffset dy="0.254237"/>
<feComposite in2="hardAlpha" operator="out"/>
<feColorMatrix type="matrix" values="0 0 0 0 0 0 0 0 0 0 0 0 0 0 0 0 0 0 0.25 0"/>
<feBlend mode="normal" in2="BackgroundImageFix" result="effect1_dropShadow_40_208"/>
<feBlend mode="normal" in="SourceGraphic" in2="effect1_dropShadow_40_208" result="shape"/>
</filter>
</defs>
</svg>
